<?xml version="1.0" encoding="utf-8"?>
<!-- Generator: Adobe Illustrator 26.5.0, SVG Export Plug-In . SVG Version: 6.00 Build 0)  -->
<svg version="1.1" id="Layer_1" xmlns="http://www.w3.org/2000/svg" xmlns:xlink="http://www.w3.org/1999/xlink" x="0px" y="0px"
	 viewBox="0 0 549 149.8" style="enable-background:new 0 0 549 149.8;" xml:space="preserve">
<style type="text/css">
	.st0{fill:#FFFFFF;}
	.st1{fill:#FFC72C;}
</style>
<g>
	<path class="st0" d="M42,130.6c2.7-1.8,3.9-4.3,3.9-7.5c0-3-1.3-6.3-3.8-8.2c-2.3-1.9-4.8-2-7.6-2h-7.1v36.3h7.1
		c6.6,0,12-3,12-10.2C46.6,135.9,45,132,42,130.6z M34.8,119c2.8-0.1,4.3,1.6,4.3,4.3c0,2.7-1.6,4.6-4.3,4.6V119z M34.8,143.2v-9.8
		c2.9-0.1,4.6,2,4.6,4.8C39.4,141.2,37.7,143.4,34.8,143.2z"/>
	<path class="st0" d="M69,113l-8.5,36.3h7.2l1.3-6.1h7.4l1.4,6.1h7.7L76.7,113H69z M70.2,137.4l1.6-9.7l0.8-5.5h0.1l0.8,5.5l1.9,9.7
		H70.2z"/>
	<polygon class="st0" points="95.7,119.7 101.4,119.7 101.4,149.2 108.7,149.2 108.7,119.7 114.5,119.7 114.5,113 95.7,113 	"/>
	<polygon class="st0" points="127.8,119.7 133.5,119.7 133.5,149.2 140.7,149.2 140.7,119.7 146.5,119.7 146.5,113 127.8,113 	"/>
	<polygon class="st0" points="168.9,134.3 175.4,134.3 175.4,127.6 168.9,127.6 168.9,119.7 176.3,119.7 176.3,113 161.7,113 
		161.7,149.2 176.4,149.2 176.4,142.5 168.9,142.5 	"/>
	<path class="st0" d="M212.8,123.3c0-9.9-8.3-10.4-12.9-10.4h-7.3v36.3h7.3v-16.7h0.1l6.4,16.7h7.7l-6.4-16.5
		C211.2,130.8,212.8,127.3,212.8,123.3z M201.1,128.6h-1.3v-9.7h1c3.7-0.2,4.9,1.9,4.9,4.5C205.8,126.4,204.5,128.6,201.1,128.6z"/>
	<polygon class="st0" points="239.4,121.9 238.5,124.6 238.4,124.6 237.9,122.8 234.1,113 226.1,113 234.9,131.9 234.9,149.2 
		242.2,149.2 242.2,131.9 250.8,113 242.6,113 	"/>
	<path class="st0" d="M295.4,122.4c0-2.2,1.4-3.6,3.7-3.6c2,0,3.8,1.1,5.3,2.3v-7c-2-1.2-4.1-1.8-6.4-1.8c-6.2,0-9.6,5-9.6,10.7
		c0,5.3,2.6,8,6.8,10.8c2,1.4,4.3,2.5,4.3,5.3c0,2.4-1.9,3.9-4.2,3.9c-2.1,0-3.8-0.8-5.5-1.9v6.8c1.7,1.2,4.2,1.8,6.2,1.8
		c6.8,0,10.6-4.9,10.6-11.3C306.4,128.7,295.4,128.3,295.4,122.4z"/>
	<polygon class="st0" points="333.3,121.9 332.5,124.6 332.4,124.6 331.9,122.8 328.1,113 320.1,113 328.9,131.9 328.9,149.2 
		336.2,149.2 336.2,131.9 344.7,113 336.6,113 	"/>
	<path class="st0" d="M365.6,122.4c0-2.2,1.4-3.6,3.7-3.6c2,0,3.8,1.1,5.3,2.3v-7c-2-1.2-4.1-1.8-6.4-1.8c-6.2,0-9.6,5-9.6,10.7
		c0,5.3,2.6,8,6.8,10.8c2,1.4,4.3,2.5,4.3,5.3c0,2.4-1.9,3.9-4.2,3.9c-2.1,0-3.8-0.8-5.5-1.9v6.8c1.7,1.2,4.2,1.8,6.2,1.8
		c6.8,0,10.6-4.9,10.6-11.3C376.6,128.7,365.6,128.3,365.6,122.4z"/>
	<polygon class="st0" points="390.8,119.7 396.5,119.7 396.5,149.2 403.8,149.2 403.8,119.7 409.5,119.7 409.5,113 390.8,113 	"/>
	<polygon class="st0" points="432,134.3 438.4,134.3 438.4,127.6 432,127.6 432,119.7 439.3,119.7 439.3,113 424.7,113 424.7,149.2 
		439.4,149.2 439.4,142.5 432,142.5 	"/>
	<polygon class="st0" points="473.5,113 470.6,134.4 470.5,134.4 467,113 457.4,113 454.2,149.2 462,149.2 463.1,123.1 463.2,123.1 
		463.2,123.8 464.4,131.9 467.9,149.2 473.5,149.2 476.7,132 477.8,123.1 477.9,123.1 479.7,149.2 487.1,149.2 483.3,113 	"/>
	<path class="st0" d="M508.9,122.4c0-2.2,1.4-3.6,3.7-3.6c2,0,3.8,1.1,5.3,2.3v-7c-2-1.2-4.1-1.8-6.4-1.8c-6.2,0-9.6,5-9.6,10.7
		c0,5.3,2.6,8,6.8,10.8c2,1.4,4.3,2.5,4.3,5.3c0,2.4-1.9,3.9-4.2,3.9c-2.1,0-3.8-0.8-5.5-1.9v6.8c1.7,1.2,4.2,1.8,6.2,1.8
		c6.8,0,10.6-4.9,10.6-11.3C519.9,128.7,508.9,128.3,508.9,122.4z"/>
	<path class="st0" d="M78.3,91.1L82.7,70c0.1-1.9-1.5-1.1-3.8,1.3c-9.1,9-22,10.2-23.8,10.2c-3.7,0-10.3-1.2-16.8-4.6
		c6.1-2.3,18.4-7.2,18.4-10.3V18.2c0-0.9,3.3-1.8,3.9-1.3c0.5,0.5,15.8,13.7,31.6,6.3c0,0-19.7-16.1-21.6-16.7
		c-2-0.6-26.9,1-35.7,13.2v55.1c-8.1-5.3-15.2-14.4-15.2-29.1c0-13,8.7-25.6,17.7-32.4c10.2-7.7,21.4-8.7,26.8-9.5
		c2.1-0.3,1.9-0.9,1.9-0.9C66.4,0.3,50.6-0.3,46,0.1C38.5,0.9,0,5.8,0,49c0,32.4,27.3,49.6,52.6,49.6C69.3,98.7,78.3,91.1,78.3,91.1
		z"/>
	<path class="st0" d="M89.1,42.9v41.2c0,1.2,5.1,3.9,10.6,6.9c6.6,3.6,13.8,7.6,15,7.6c1.7,0,7.6-3.5,13-6.9c4.7-3,9.1-5.9,9.1-7.5
		c0,0,0.1-39.4,0.1-41.8c0-1.7-5.7-4.3-11.2-7.2c-4.8-2.6-8.5-5-11.4-5c-2.1,0-7.5,2.8-13,5.3C95.2,38.5,89.1,40.8,89.1,42.9z
		 M109.6,45.1c1.9-4.8,7.1,0.4,7.1,0.4v30.6c-1.3,7-7.1,0.6-7.1,0.6V45.1z"/>
	<path class="st0" d="M141.9,49.2v47.9h21.9V52.2c0,0-0.4-6.5,3.2-6.5c3.3,0,2.7,6.9,2.7,6.9V97H199v-4.9c-3.3,0-5.2-1.2-5.2-4.7
		v-43c0-8.3-6-12.2-12-10.7c0,0-14,3.6-20.7,7.1V36c0,0,0-3.2-3.4-2.3c-3.4,0.8-19.2,4.9-19.2,4.9v7
		C138.4,45.6,141.9,45.3,141.9,49.2z"/>
	<path class="st0" d="M203.5,92.4c0,0-0.7,4.7,4.5,4.7h24.3v-4.7c0,0-5.4,0.7-5.4-4.7V42.5h4.6v-6.9h-4.3V19.1c0,0,0.4-4.5-4.9-2.9
		c-5.6,1.7-18.8,4.5-18.8,8.3v11.1H199v6.8h4.6v50H203.5z"/>
	<path class="st0" d="M237.1,35.1v58.4c0,0-0.4,3.6,5.5,3.6h21.6v-5c0,0-4.7,1-4.7-4V39.3c0,0,0.5-4.3-5.7-4.3
		C246.9,35,237.1,35.1,237.1,35.1z"/>
	<path class="st0" d="M343.4,93.8c5.4,2.7,10.2,4.9,12.9,4.9c2.4,0,5.3-3.8,8.9-7.4c2.9-2.9,5.7-5.9,6.1-6.5c1-1.4,0.9-3.6,0.9-4.5
		c0-1.5,0.2-3.8-0.8-4.1c-0.9-0.3-1.6,0.9-2.4,1.9s-5.5,5.9-8,8.1c0,0-11.8-5.3-11.8-7.2V67.7c0,0,6-2.5,11.8-4.7
		c5.5-2.1,10.8-3.9,11.2-4.9c0.5-1.4-0.6-2.9-1.3-4c-5.7-9.6-10.4-21.5-13-22.2c-3-0.8-10.4,2.9-12.4,3.7c-8,2.9-16.2,4-16.2,8.3
		v40.5C329.4,88.6,336.9,90.5,343.4,93.8z M349.1,44.9h0.8c1,2.5,5.9,11.2,5.9,11.2c-3.7,2.2-6.7,2.6-6.7,2.6L349.1,44.9L349.1,44.9
		z"/>
	<path class="st0" d="M484.9,41.6c4.7,1,7.2,4.8,7.2,4.8S464.7,60.8,464.7,79c0,16.6,12.1,21.2,18.2,21.2s15.8-5.7,15.8-5.7v0.7
		c0,0-0.1,2.1,2.5,2.1H522v-4.2c-4.4-0.2-3.9-4-3.9-4V46.9c0-3.4-4.3-6.8-12.9-10.8c-5.4-2.6-10.3-5.8-14.3-5.8
		c-4.2,0-14.2,4-18.8,5.7v5.3C477.7,40.5,480.2,40.6,484.9,41.6z M496.8,54.2l-0.1,33.4c-4,1.7-13-0.6-13.5-13.4
		s12.1-20.7,12.9-20.7C497,53.5,496.8,54.2,496.8,54.2z"/>
	<path class="st0" d="M546,3.2h-23.8L522,8.3c5.3,0,4.8,4.3,4.8,4.3v86.1H549v-93C549,5.7,548.9,3.2,546,3.2z"/>
	<path class="st0" d="M269.2,49.2v47.9H291V52.2c0,0-0.4-6.4,3.2-6.4c3.3,0,2.7,6.9,2.7,6.9v44.4h29.3v-4.9c-3.3,0-5.2-1.2-5.2-4.7
		v-43c0-8.3-6-12.2-12-10.7c0,0-14,3.6-20.7,7.1V36c0,0,0-3.2-3.4-2.3c-3.4,0.8-19.2,4.9-19.2,4.9v7
		C265.7,45.6,269.2,45.3,269.2,49.2z"/>
	<path class="st0" d="M377.4,49.2v47.9h21.9V52.2c0,0-0.4-6.4,3.2-6.4c3.3,0,2.7,6.9,2.7,6.9v44.4h29.3v-4.9c-3.3,0-5.2-1.2-5.2-4.7
		v-43c0-8.3-6-12.2-12-10.7c0,0-14,3.6-20.7,7.1V36c0,0,0-3.2-3.4-2.3c-3.4,0.8-19.2,4.9-19.2,4.9v7C374,45.6,377.4,45.3,377.4,49.2
		z"/>
	<path class="st0" d="M439,92.3c0,0-0.7,4.7,4.5,4.7h24.3v-4.7c0,0-5.4,0.7-5.4-4.7V42.5h4.5v-6.9h-4.3V19.1c0,0,0.4-4.3-4.9-2.9
		s-18.8,4.5-18.8,8.3v11.2h-4.5v6.8h4.6L439,92.3L439,92.3z"/>
	<path class="st0" d="M238.8,32.9c0.5,1.6,2.3,2.5,4,2l11.2-3.4c1.7-0.5,2.6-2.2,2.1-3.8l-3.1-9.6c-0.5-1.6-2.3-2.5-4-2l-11.2,3.4
		c-1.7,0.5-2.6,2.2-2.1,3.8L238.8,32.9z"/>
	<path class="st1" d="M544.3,103.8h-527c-0.6,0-1,0.4-1,1s0.4,1,1,1h526.9c0.6,0,1-0.4,1-1S544.8,103.8,544.3,103.8z"/>
</g>
</svg>
